<?xml version="1.0" standalone="no"?>
<!DOCTYPE svg PUBLIC "-//W3C//DTD SVG 20010904//EN"
 "http://www.w3.org/TR/2001/REC-SVG-20010904/DTD/svg10.dtd">
<svg version="1.0" xmlns="http://www.w3.org/2000/svg"
 width="1536.000000pt" height="1024.000000pt" viewBox="0 0 1536.000000 1024.000000"
 preserveAspectRatio="xMidYMid meet">

<g transform="translate(0.000000,1024.000000) scale(0.100000,-0.100000)"
fill="#000000" stroke="none">
<path d="M7819 8493 c-13 -16 -12 -17 4 -4 9 7 17 15 17 17 0 8 -8 3 -21 -13z"/>
<path d="M7811 8454 c0 -11 3 -14 6 -6 3 7 2 16 -1 19 -3 4 -6 -2 -5 -13z"/>
<path d="M7935 8451 c-6 -10 33 -36 42 -28 2 3 -5 8 -16 12 -12 3 -19 11 -16
16 4 5 4 9 1 9 -3 0 -7 -4 -11 -9z"/>
<path d="M8022 8363 c2 -10 13 -19 26 -21 13 -2 20 -8 16 -14 -5 -7 -2 -8 5
-4 8 5 14 1 17 -10 3 -11 17 -28 32 -38 l27 -19 -25 29 c-79 93 -105 113 -98
77z"/>
<path d="M8190 8170 c6 -11 13 -20 16 -20 2 0 0 9 -6 20 -6 11 -13 20 -16 20
-2 0 0 -9 6 -20z"/>
<path d="M7386 8055 c-20 -17 -23 -24 -12 -28 15 -6 40 16 30 26 -3 3 3 3 13
1 11 -3 27 -19 37 -35 10 -17 20 -28 22 -26 7 7 -35 75 -50 80 -7 3 -25 -5
-40 -18z"/>
<path d="M8262 8004 c1 -16 -1 -41 -5 -56 -6 -22 -4 -26 8 -22 11 5 13 2 8
-12 -4 -11 -3 -15 4 -11 6 4 14 1 16 -5 11 -28 6 19 -7 71 -17 62 -26 76 -24
35z"/>
<path d="M7266 7884 c-8 -20 -8 -24 2 -24 4 0 8 9 9 20 2 24 -3 26 -11 4z"/>
<path d="M8159 7353 c-13 -16 -12 -17 4 -4 9 7 17 15 17 17 0 8 -8 3 -21 -13z"/>
<path d="M10410 7187 c0 -2 14 -13 30 -25 35 -26 40 -22 8 8 -19 18 -38 26
-38 17z"/>
<path d="M10999 7005 c-3 -11 0 -36 7 -55 10 -29 12 -31 12 -10 0 14 -3 39 -7
55 -6 25 -8 27 -12 10z"/>
<path d="M10810 6779 c25 -4 56 -7 70 -7 l25 0 -25 8 c-14 4 -45 8 -70 8 l-45
-1 45 -8z"/>
<path d="M11532 6590 c0 -14 2 -19 5 -12 2 6 2 18 0 25 -3 6 -5 1 -5 -13z"/>
<path d="M2795 6223 c4 -10 15 -43 25 -72 14 -45 19 -51 24 -34 5 14 -2 39
-19 72 -24 48 -46 72 -30 34z"/>
<path d="M3152 5790 c-22 -29 -27 -69 -13 -105 7 -17 8 -15 14 10 4 17 13 51
21 78 17 54 9 60 -22 17z"/>
<path d="M12485 5618 c-19 -49 -88 -369 -80 -376 13 -13 35 24 35 59 0 54 25
165 55 244 25 69 32 115 16 115 -5 0 -16 -19 -26 -42z"/>
<path d="M12040 5551 c0 -5 5 -13 10 -16 6 -3 10 -2 10 4 0 5 -4 13 -10 16 -5
3 -10 2 -10 -4z"/>
<path d="M12080 5498 c0 -3 12 -30 26 -58 14 -28 23 -57 21 -65 -7 -17 31 -51
65 -57 l26 -5 -21 32 c-20 28 -69 97 -104 144 -7 9 -13 13 -13 9z"/>
<path d="M2545 5310 c-3 -6 2 -13 12 -17 10 -3 21 -8 26 -10 4 -2 7 0 7 6 0
16 -38 33 -45 21z"/>
<path d="M2818 5253 c7 -3 16 -2 19 1 4 3 -2 6 -13 5 -11 0 -14 -3 -6 -6z"/>
<path d="M13180 5225 c-7 -9 -8 -15 -2 -15 5 0 12 7 16 15 3 8 4 15 2 15 -2 0
-9 -7 -16 -15z"/>
<path d="M12944 5132 c2 -4 -13 -8 -35 -8 -41 -2 -93 -29 -84 -44 11 -18 74
-11 92 10 10 11 22 20 28 20 6 0 20 7 31 15 18 14 18 14 -9 15 -16 0 -26 -3
-23 -8z"/>
<path d="M2667 5116 c-4 -9 3 -23 16 -33 12 -10 23 -25 25 -32 2 -8 9 -26 17
-40 l14 -26 1 28 c0 23 -21 63 -61 110 -3 5 -9 1 -12 -7z"/>
<path d="M12768 5073 c7 -3 16 -2 19 1 4 3 -2 6 -13 5 -11 0 -14 -3 -6 -6z"/>
<path d="M13205 4880 c-3 -5 -2 -10 4 -10 5 0 13 5 16 10 3 6 2 10 -4 10 -5 0
-13 -4 -16 -10z"/>
<path d="M13160 4838 c-12 -22 -12 -22 6 -6 10 10 15 20 12 24 -4 3 -12 -5
-18 -18z"/>
<path d="M2972 4708 c-6 -46 -17 -103 -25 -128 l-13 -45 -31 60 c-17 33 -36
78 -43 100 -11 36 -30 69 -30 52 0 -41 30 -124 64 -175 l41 -63 14 33 c14 35
62 203 65 228 0 8 -6 16 -15 18 -13 2 -18 -12 -27 -80z"/>
<path d="M13335 4710 c-19 -8 -19 -9 2 -9 12 -1 25 4 28 9 7 12 -2 12 -30 0z"/>
<path d="M12302 4690 c0 -14 2 -19 5 -12 2 6 2 18 0 25 -3 6 -5 1 -5 -13z"/>
<path d="M2664 4655 c20 -18 36 -25 50 -21 12 3 30 6 40 6 32 0 9 13 -36 20
-24 4 -52 11 -63 15 -15 5 -13 0 9 -20z"/>
<path d="M3050 4660 c0 -19 3 -21 12 -12 9 9 9 15 0 24 -9 9 -12 7 -12 -12z"/>
<path d="M12304 4644 c7 -15 -20 -46 -64 -73 -19 -11 -29 -21 -22 -21 27 0 78
29 107 61 16 19 24 29 16 22 -11 -10 -17 -9 -28 5 -8 9 -12 12 -9 6z"/>
<path d="M11910 4597 c0 -2 15 -16 33 -33 l32 -29 -29 33 c-28 30 -36 37 -36
29z"/>
<path d="M13080 4566 c0 -3 9 -10 20 -16 11 -6 20 -8 20 -6 0 3 -9 10 -20 16
-11 6 -20 8 -20 6z"/>
<path d="M13265 4484 c67 -36 82 -50 96 -93 7 -20 17 -44 24 -54 10 -14 11 -9
7 33 -4 44 -2 50 14 50 34 0 -6 26 -81 53 -110 39 -113 40 -60 11z"/>
<path d="M13447 4409 c7 -7 15 -10 18 -7 3 3 -2 9 -12 12 -14 6 -15 5 -6 -5z"/>
<path d="M12843 4323 c9 -2 23 -2 30 0 6 3 -1 5 -18 5 -16 0 -22 -2 -12 -5z"/>
<path d="M3802 4271 c-6 -17 -9 -31 -6 -31 7 0 25 52 20 57 -2 2 -8 -10 -14
-26z"/>
<path d="M3871 4219 c-7 -12 -10 -23 -8 -26 3 -3 11 5 17 17 6 12 10 23 8 25
-2 2 -10 -5 -17 -16z"/>
<path d="M2201 4221 c21 -13 93 -32 149 -38 67 -8 43 5 -41 22 -41 8 -85 17
-99 20 -20 5 -22 4 -9 -4z"/>
<path d="M3802 4167 c-6 -18 -12 -42 -15 -54 -6 -26 38 -201 45 -181 3 8 -1
41 -10 75 -15 58 -15 63 5 115 20 53 20 55 3 66 -16 10 -20 7 -28 -21z"/>
<path d="M3942 4177 c-7 -16 -12 -38 -12 -50 1 -17 4 -15 16 12 8 19 13 42 11
50 -3 11 -8 7 -15 -12z"/>
<path d="M12631 4154 c0 -11 3 -14 6 -6 3 7 2 16 -1 19 -3 4 -6 -2 -5 -13z"/>
<path d="M4075 4130 c4 -6 11 -8 16 -5 14 9 11 15 -7 15 -8 0 -12 -5 -9 -10z"/>
<path d="M12705 4129 c-4 -6 -5 -12 -2 -15 2 -3 7 2 10 11 7 17 1 20 -8 4z"/>
<path d="M4125 4120 c3 -5 8 -10 11 -10 2 0 4 5 4 10 0 6 -5 10 -11 10 -5 0
-7 -4 -4 -10z"/>
<path d="M12740 4120 c0 -5 5 -10 10 -10 6 0 10 5 10 10 0 6 -4 10 -10 10 -5
0 -10 -4 -10 -10z"/>
<path d="M2835 3662 c-11 -2 -24 -8 -29 -13 -13 -12 -122 -12 -164 0 -17 5
-32 6 -32 1 0 -23 230 -24 253 -1 12 12 -3 18 -28 13z"/>
<path d="M12204 3549 c-10 -12 -41 -34 -69 -50 -27 -16 -43 -29 -35 -29 8 0
34 13 58 28 46 31 88 72 74 72 -5 0 -17 -10 -28 -21z"/>
<path d="M2926 3530 c3 -14 7 -25 8 -26 0 0 17 -11 36 -23 l35 -23 -31 29
c-17 15 -36 37 -43 48 -11 18 -11 18 -5 -5z"/>
<path d="M3291 3524 c0 -11 3 -14 6 -6 3 7 2 16 -1 19 -3 4 -6 -2 -5 -13z"/>
<path d="M3300 3477 c0 -15 11 -29 33 -41 17 -11 47 -35 64 -55 l33 -36 0 27
c0 21 -6 29 -25 34 -13 3 -42 26 -65 50 -35 38 -40 41 -40 21z"/>
<path d="M12297 3434 c-4 -4 -7 -14 -7 -23 0 -11 3 -12 11 -4 6 6 10 16 7 23
-2 6 -7 8 -11 4z"/>
<path d="M11864 3415 c-10 -8 -14 -14 -9 -14 6 0 19 6 29 14 11 8 15 15 10 15
-6 0 -19 -7 -30 -15z"/>
<path d="M3050 3304 c-25 -14 -38 -23 -30 -20 72 23 90 30 90 38 0 12 -11 9
-60 -18z"/>
<path d="M2890 3235 c-14 -16 -3 -20 19 -6 8 5 9 11 3 15 -5 3 -15 -1 -22 -9z"/>
<path d="M5090 3140 c0 -5 5 -10 11 -10 5 0 7 5 4 10 -3 6 -8 10 -11 10 -2 0
-4 -4 -4 -10z"/>
<path d="M5880 3050 c0 -5 5 -10 11 -10 5 0 7 5 4 10 -3 6 -8 10 -11 10 -2 0
-4 -4 -4 -10z"/>
<path d="M4811 2973 c24 -31 39 -45 39 -36 -1 11 -36 53 -45 53 -4 0 -1 -8 6
-17z"/>
<path d="M4531 2833 c0 -5 9 -26 20 -48 18 -37 17 -18 -2 33 -8 21 -20 31 -18
15z"/>
<path d="M4981 2784 c5 -14 90 -107 94 -102 2 2 -20 28 -47 58 -28 30 -49 50
-47 44z"/>
<path d="M6200 2711 l-35 -7 40 -5 c50 -5 85 0 85 12 0 10 -36 10 -90 0z"/>
<path d="M6083 2690 c16 -5 38 -5 50 0 17 7 10 9 -28 9 -43 -1 -46 -2 -22 -9z"/>
<path d="M6900 2530 c0 -5 5 -10 11 -10 5 0 7 5 4 10 -3 6 -8 10 -11 10 -2 0
-4 -4 -4 -10z"/>
<path d="M5865 2501 c-3 -5 -1 -12 5 -16 5 -3 10 1 10 9 0 18 -6 21 -15 7z"/>
<path d="M8138 2273 c7 -3 16 -2 19 1 4 3 -2 6 -13 5 -11 0 -14 -3 -6 -6z"/>
</g>
</svg>
